<svg viewBox="0 0 124 81" fill="none" xmlns="http://www.w3.org/2000/svg" xmlns:anim="http://www.w3.org/2000/anim" anim="" anim:transform-origin="50% 50%" anim:duration="2" anim:ease="ease-in-out">
  <g id="Frame 3">
    <path id="Vector 4" d="M122 19L65 45.5C65 45.5 63.5 46.25 62 46.25C60.5 46.25 59 45.5 59 45.5L2 19L0 23L59 50.5968C59 50.5968 60.5 51.5 62 51.5C63.5 51.5 65.0526 50.5968 65.0526 50.5968L124 23.5L122 19Z" fill="#00FF8B" anim:opacity="1[0.5:0.9:0:ease-in-out][1.7:2:1:ease-in-out]" anim:y="0[0:0.5:20:ease-in-out][1.5:1.6:0:ease-in-out]"></path>
    <path id="Vector 5" d="M122 2L65 28.5C65 28.5 63.5 29.25 62 29.25C60.5 29.25 59 28.5 59 28.5L2 2L0 6L59 33.5968C59 33.5968 60.5 34.5 62 34.5C63.5 34.5 65.0526 33.5968 65.0526 33.5968L124 6.5L122 2Z" fill="#00FF8B" anim:opacity="0[0:0.1:0:ease-in-out][0.1:0.5:1:ease-in-out][1:1.5:0:ease-in-out]" anim:y="20[0:0.1:0:ease-in-out][0.5:1:20:ease-in-out]"></path>
  </g>
</svg>