<svg id="eKxNG7mtEfo1" xmlns="http://www.w3.org/2000/svg" xmlns:xlink="http://www.w3.org/1999/xlink" viewBox="0 0 80 69" shape-rendering="geometricPrecision" text-rendering="geometricPrecision"><g mask="url(#eKxNG7mtEfo4)"><path d="M40,0L80,69h-18.4874L40,31.5L27.0588,53.5922h16.6387L52.7731,69L0,69L40,0Zm-.3361,7.36893L73.6134,65.3155h-9.9159L40,24L20.8403,57.2767h20.8404l4.7059,8.0388h-40.00005L39.6639,7.36893Z" clip-rule="evenodd" fill="#00ff8b" fill-rule="evenodd"/><mask id="eKxNG7mtEfo4" mask-type="luminance" x="-150%" y="-150%" height="400%" width="400%"><rect id="eKxNG7mtEfo5" width="80" height="69" rx="0" ry="0" transform="matrix(.371514 0 0.000003 0.000005 61.57225 68.999655)" fill="#d2dbed" stroke-width="0"/><rect id="eKxNG7mtEfo6" width="80" height="69" rx="0" ry="0" transform="matrix(.371514 0 0.047326-.081971 28.409621 0)" fill="#d2dbed" stroke-width="0"/><rect id="eKxNG7mtEfo7" width="80" height="69" rx="0" ry="0" transform="matrix(-.000003 0 0 0.223886 0 53.551866)" fill="#d2dbed" stroke-width="0"/></mask></g>
</svg>
